<?xml version="1.0" encoding="UTF-8"?><svg id="Layer_2" xmlns="http://www.w3.org/2000/svg" viewBox="0 0 595.48 181.33"><defs><style>.cls-1{isolation:isolate;}.cls-2{fill:#fff;stroke-width:0px;}</style></defs><g id="Layer_1-2"><path class="cls-2" d="m35.08,85.54l10.5,24.46c.21.48.45,1.08.64,1.47,1.31,2.98,3.05,5.82,5.18,8.28,13.84,16.16,37.5,15.39,55.8,7.34,23.78-9.04,41.58-35.92,32.55-61.3-1.32-3.57-3.65-8.64-5.14-12.22,0,0-5.25-12.23-5.25-12.23,2.06,3.99,7.14,13.92,9.12,17.76,11.14,18.37,7.26,41.53-6.33,57.64-11.84,14.18-30.27,23.08-48.7,25.15-14.71,1.47-30.34-3.22-40.82-14.03-3.57-3.57-6.47-7.88-8.7-12.39,0,0-12.16-23.68-12.16-23.68l13.3-6.26h0Z"/><path class="cls-2" d="m109.91,75.15l-10.5-24.46c-.21-.48-.45-1.08-.64-1.47-1.31-2.98-3.05-5.82-5.18-8.28-13.84-16.16-37.5-15.39-55.8-7.34C14.01,42.63-3.79,69.51,5.23,94.89c1.32,3.57,3.65,8.64,5.14,12.22,0,0,5.25,12.23,5.25,12.23-2.06-3.99-7.14-13.92-9.12-17.76C-4.64,83.21-.76,60.04,12.83,43.94c11.84-14.18,30.27-23.08,48.7-25.15,14.71-1.47,30.34,3.22,40.82,14.03,3.56,3.57,6.47,7.88,8.7,12.39,0,0,12.16,23.68,12.16,23.68l-13.3,6.26h0Z"/><g class="cls-1"><path class="cls-2" d="m181.07,23.52h15.74l31.63,74.25,31.03-74.25h15.8v113.91h-16.7v-71.04h-.38l-23.09,54.7h-13.93l-23.09-54.7h-.3v71.04h-16.7V23.52Z"/><path class="cls-2" d="m384.74,105.6c-2.42,10.56-7.04,18.67-13.85,24.34-7.01,5.62-15.32,8.42-24.91,8.42-8.67-.21-15.91-2.39-21.71-6.56-5.9-4.01-10.19-8.64-12.86-13.91-.81-1.72-1.54-3.36-2.19-4.92-.61-1.61-1.11-3.64-1.51-6.09-.76-4.58-1.13-13.38-1.13-26.41s.38-22.08,1.13-26.56c.81-4.48,2.04-8.1,3.71-10.86,2.67-5.26,6.96-9.95,12.87-14.06,5.8-4.17,13.04-6.3,21.72-6.41,10.64.11,19.32,3.35,26.03,9.75,6.71,6.45,10.95,14.43,12.71,23.95h-17.73c-1.36-4.59-3.84-8.51-7.43-11.74-3.74-3.08-8.29-4.67-13.64-4.78-3.94.11-7.33.91-10.16,2.43-2.88,1.57-5.21,3.52-6.97,5.87-2.17,2.45-3.61,5.61-4.32,9.47-.81,4.07-1.21,11.72-1.21,22.94s.4,18.82,1.21,22.78c.71,3.97,2.15,7.18,4.32,9.63,1.77,2.35,4.09,4.25,6.98,5.71,2.83,1.72,6.22,2.58,10.16,2.58,9.4,0,16.43-5.19,21.08-15.58h17.71Z"/><path class="cls-2" d="m481.72,105.6c-2.42,10.56-7.04,18.67-13.85,24.34-7.01,5.62-15.32,8.42-24.91,8.42-8.67-.21-15.91-2.39-21.71-6.56-5.9-4.01-10.19-8.64-12.86-13.91-.81-1.72-1.54-3.36-2.19-4.92-.61-1.61-1.11-3.64-1.51-6.09-.76-4.58-1.13-13.38-1.13-26.41s.38-22.08,1.13-26.56c.81-4.48,2.04-8.1,3.71-10.86,2.67-5.26,6.96-9.95,12.87-14.06,5.8-4.17,13.04-6.3,21.72-6.41,10.64.11,19.32,3.35,26.03,9.75,6.71,6.45,10.95,14.43,12.71,23.95h-17.73c-1.36-4.59-3.84-8.51-7.43-11.74-3.74-3.08-8.29-4.67-13.64-4.78-3.94.11-7.33.91-10.16,2.43-2.88,1.57-5.21,3.52-6.97,5.87-2.17,2.45-3.61,5.61-4.32,9.47-.81,4.07-1.21,11.72-1.21,22.94s.4,18.82,1.21,22.78c.71,3.97,2.15,7.18,4.32,9.63,1.77,2.35,4.09,4.25,6.98,5.71,2.83,1.72,6.22,2.58,10.16,2.58,9.4,0,16.43-5.19,21.08-15.58h17.71Z"/><path class="cls-2" d="m504.29,23.52h39.99c4.34,0,8.53.42,12.57,1.25,4.04,1.09,8.13,3.33,12.27,6.72,3.48,2.55,6.3,6.2,8.46,10.94,2.27,4.58,3.4,10,3.4,16.25,0,8.44-2.88,16.12-8.63,23.04-5.91,7.29-14.55,11.04-25.91,11.25h-25.46v44.46h-16.7V23.52Zm16.7,53.21h24.79c6.22-.11,10.89-2.09,14.03-5.97,2.98-3.77,4.47-7.95,4.47-12.56,0-3.82-.61-7.04-1.82-9.65-1.26-2.35-3.03-4.21-5.31-5.57-3.44-2.25-7.43-3.32-11.98-3.22h-24.19v36.97Z"/></g></g></svg>